<svg width="307" height="65" viewBox="0 0 307 65" fill="none" xmlns="http://www.w3.org/2000/svg">
<path d="M175.492 19.4148C174.654 18.4559 173.225 18.2346 172.14 18.8985C170.416 19.9312 170.071 22.5621 171.475 24.0866C172.535 25.2669 174.186 25.3406 175.344 24.2587C176.058 23.5949 176.379 22.7343 176.403 21.8737C176.379 20.8655 176.083 20.0787 175.492 19.4148ZM173.446 24.0866C173.052 23.5211 172.609 23.2014 172.633 22.8818C172.633 22.6113 173.175 22.1441 173.446 22.1687C173.791 22.1933 174.309 22.6113 174.334 22.931C174.383 23.2014 173.89 23.5457 173.446 24.0866Z" fill="#1DD4A3"/>
<path d="M156.271 4.07148C156.025 3.92395 155.779 3.801 155.557 3.67806C156.05 3.26006 156.863 2.49781 156.887 2.30111C156.912 2.1044 156.469 2.12899 156.247 2.12899C155.754 2.15357 155.335 2.15357 154.892 2.15357C154.202 2.12899 154.226 1.6618 154.423 1.36674C154.62 1.07168 154.941 0.825796 154.818 0.727442C154.694 0.629088 154.226 0.678265 153.807 0.75203C153.487 0.801207 150.579 1.51427 149.051 2.39946C147.819 3.11253 147.105 4.31736 147.401 5.39926C148.041 7.63681 149.47 9.28424 151.762 10.0219C153.635 10.6366 155.976 9.65306 157.134 7.95646C158.243 6.33362 157.972 5.07961 156.271 4.07148ZM152.896 7.48928C152.896 7.48928 154.916 6.87456 155.951 7.63681C155.951 7.63681 154.349 10.9071 152.896 7.48928Z" fill="#1DD4A3"/>
<path d="M199.665 3.92388C198.285 2.37481 196.634 2.79281 195.106 3.77635C193.406 4.88283 191.952 7.75969 192.125 9.84971C192.248 11.325 193.406 12.997 194.589 13.0954C196.634 13.2675 199.147 12.3086 200.404 9.99724C201.341 8.20228 201.094 5.52214 199.665 3.92388ZM193.8 11.0054C193.652 10.8333 193.48 10.4644 193.554 10.3661C193.8 9.99724 194.096 9.72677 194.441 9.80053C194.613 9.82512 194.835 9.99724 194.958 10.2431C195.747 9.82512 196.141 9.92348 196.585 10.7841C195.747 11.9643 194.49 11.8906 193.8 11.0054Z" fill="#1DD4A3"/>
<path d="M198.581 2.86665C198.581 2.86665 199 0.506151 201.094 0.0635585C203.189 -0.379034 204.914 1.56346 205.086 3.6043C205.259 5.64515 203.681 8.86624 206.293 11.0054C206.293 11.0054 203.435 11.2021 202.844 8.27611C202.425 6.1615 202.006 3.97313 199.591 4.04689C199.074 4.07148 198.605 3.6043 198.581 2.86665Z" fill="#1DD4A3"/>
<path d="M102.43 21.7261C102.602 21.2098 102.676 20.4721 102.676 19.5377C102.676 18.6034 102.602 17.8657 102.43 17.3494C102.307 16.956 102.11 16.6855 101.839 16.5379C101.469 16.3658 101.149 16.2429 100.902 16.2183C100.582 16.1691 100.064 16.1445 99.3498 16.1445H80.4991C78.6017 16.1445 77.8871 16.5379 77.6407 16.7838C77.345 17.0789 77 17.7674 77 19.4886V46.0196C77 47.2736 77.1232 47.8637 77.2218 48.1588C77.4928 49.0194 78.5524 49.4374 80.3512 49.4374C82.569 49.4374 83.1604 48.921 83.3328 48.6013C83.6039 48.1096 83.6778 47.8145 83.7025 47.6424C83.7271 47.4211 83.7764 46.9785 83.7764 46.0933V36.2333H94.0026C95.2839 36.2333 95.9 36.135 96.1957 36.0366C97.0088 35.7661 97.4277 34.6843 97.4277 32.8893C97.4277 31.2665 97.132 30.16 96.6146 29.8403C96.1464 29.5944 95.8507 29.5207 95.6536 29.4961C95.3332 29.4469 94.7911 29.4223 94.0765 29.4223H83.7764V22.9064H99.2512C99.9658 22.9064 100.508 22.8818 100.853 22.8326C101.124 22.808 101.469 22.6851 101.863 22.4884C102.011 22.4146 102.257 22.2425 102.43 21.7261Z" fill="#193974"/>
<path d="M137.248 46.8556C137.248 46.6343 137.15 46.0441 136.534 44.7901L123.621 18.1608C122.932 16.7838 121.946 16.1445 120.541 16.1445C119.901 16.1445 119.309 16.3167 118.718 16.6855C118.126 17.0543 117.708 17.5215 117.437 18.1116L104.524 44.7901C103.884 46.0687 103.785 46.6343 103.785 46.8556C103.785 47.8391 105.042 48.6505 106.077 49.1423C107.284 49.7324 107.925 49.88 108.27 49.88C108.713 49.88 109.034 49.7816 109.28 49.6095C109.674 49.3144 109.847 49.0931 109.921 48.9456C110.093 48.6751 110.315 48.2325 110.635 47.6178L113.346 41.987H127.663L130.373 47.6178C130.669 48.2325 130.915 48.6997 131.088 49.0194C131.211 49.2161 131.408 49.4374 131.704 49.6586C131.95 49.8308 132.295 49.9291 132.739 49.9291C133.084 49.9291 133.724 49.8062 134.932 49.2161C136.016 48.6751 137.248 47.8391 137.248 46.8556ZM116.007 36.6267L120.492 27.3077L125.051 36.6267H116.007Z" fill="#193974"/>
<path d="M216.717 49.4372C218.935 49.4372 219.526 48.9208 219.698 48.6012C219.969 48.1094 220.043 47.8143 220.068 47.6422C220.093 47.4209 220.142 46.9783 220.142 46.0931V19.5622C220.142 18.2836 220.019 17.6443 219.945 17.3246C219.674 16.5624 218.614 16.1689 216.791 16.1689C215.164 16.1689 214.08 16.464 213.809 17.005C213.538 17.4967 213.464 17.8164 213.44 17.9885C213.39 18.3081 213.366 18.8245 213.366 19.5376V46.0686C213.366 47.3226 213.489 47.9127 213.587 48.2078C213.858 49.0438 214.918 49.4372 216.717 49.4372Z" fill="#193974"/>
<path d="M256.981 46.8556C256.981 46.6343 256.907 46.0687 256.34 44.7164C254.862 41.3969 253.778 38.8889 253.088 37.2169L252.866 36.7005L253.285 36.3071C255.527 34.1187 256.611 31.414 256.611 28.0208C256.611 26.1029 256.217 24.3325 255.453 22.7588C254.665 21.1852 253.679 19.9312 252.521 19.0214C250.032 17.1035 247.469 16.1445 244.857 16.1445H234.533C232.906 16.1445 231.822 16.4396 231.551 16.9805C231.28 17.4723 231.206 17.792 231.181 17.9641C231.132 18.2837 231.107 18.8001 231.107 19.4886V45.995C231.107 47.249 231.231 47.8883 231.354 48.2079C231.625 49.0193 232.66 49.4128 234.483 49.4128C236.11 49.4128 237.194 49.1177 237.465 48.5768C237.687 48.1833 237.81 47.8637 237.835 47.5932C237.884 47.2736 237.908 46.7572 237.908 46.0687V39.8233H244.783L246.804 39.7003L247.026 40.2658C249.687 46.6343 250.525 48.4292 250.722 48.8472C250.845 49.0193 251.067 49.2652 251.363 49.4865C251.609 49.6832 251.954 49.757 252.373 49.757C252.718 49.757 253.359 49.6586 254.492 49.1669C256.143 48.4538 256.981 47.6916 256.981 46.8556ZM248.135 31.832C247.075 32.6434 245.966 33.0614 244.857 33.0614H237.884V22.9064H244.759C245.942 22.9064 247.075 23.3244 248.135 24.1604C249.268 25.0456 249.86 26.3242 249.86 27.9962C249.86 29.6682 249.293 30.9468 248.135 31.832Z" fill="#193974"/>
<path d="M270.041 49.4372C271.667 49.4372 272.751 49.1421 273.022 48.6012C273.293 48.1094 273.367 47.8143 273.392 47.6422C273.417 47.4209 273.466 46.9783 273.466 46.0931V19.5622C273.466 18.2836 273.343 17.6443 273.269 17.3246C272.998 16.5624 271.938 16.1689 270.115 16.1689C268.488 16.1689 267.404 16.464 267.133 17.005C266.862 17.4967 266.788 17.8164 266.763 17.9885C266.714 18.3081 266.69 18.8245 266.69 19.513V46.044C266.69 47.298 266.813 47.8881 266.911 48.1832C267.182 49.0438 268.217 49.4372 270.041 49.4372Z" fill="#193974"/>
<path d="M305.82 44.1998C306.584 42.7491 306.978 41.0525 306.978 39.1346C306.978 37.2167 306.609 35.6184 305.869 34.3152C305.155 33.0612 304.243 32.176 303.208 31.6843C302.05 31.1433 300.744 30.6515 299.364 30.2827C297.96 29.8893 296.654 29.5942 295.495 29.4221C294.165 29.2254 293.031 28.8074 292.12 28.1927C291.085 27.5042 290.518 26.5207 290.518 25.365C290.518 24.2339 290.986 23.275 291.898 22.6357C292.736 22.0456 293.771 21.7259 294.978 21.7259C296.161 21.7259 297.171 21.9718 297.984 22.4636L298.033 22.4882C298.28 22.6603 298.576 22.9062 298.871 23.1766C299.216 23.4963 299.315 23.57 299.315 23.57C300.35 24.2339 300.99 24.3815 301.335 24.3815C302.173 24.3815 303.085 23.693 303.997 22.3652C304.859 21.0866 305.007 20.4719 305.007 20.226C305.007 20.0785 304.908 19.5621 303.824 18.5294L302.666 17.6442C302.272 17.3246 301.483 16.8328 299.635 16.2673C298.157 15.8001 296.456 15.5542 294.658 15.5542C291.306 15.5542 288.62 16.5132 286.723 18.4311C284.776 20.3735 283.84 22.5619 283.84 25.1683C283.84 27.0616 284.21 28.6599 284.949 29.9876C285.688 31.2908 286.6 32.2498 287.659 32.8399C288.818 33.4792 290.099 34.0447 291.454 34.5365C292.81 35.0037 294.091 35.3725 295.249 35.5692C296.555 35.8151 297.664 36.2085 298.576 36.7495C299.931 37.5609 300.202 38.5936 300.202 39.3067C300.202 40.9787 299.512 43.7818 294.904 43.7818C294.042 43.7818 293.13 43.4867 292.169 42.9212C291.282 42.3802 290.567 41.8147 290.074 41.2246C288.152 39.3067 287.265 39.11 286.969 39.11C286.304 39.11 285.663 39.405 285.023 40.0198C283.396 41.5934 283.224 42.3802 283.224 42.6261C283.224 43.2408 283.569 43.9785 284.284 44.8391L284.752 45.4046C285.343 46.2652 286.452 47.175 288.029 48.134C288.818 48.6503 289.828 49.0683 291.06 49.4126C292.317 49.7568 293.672 49.9289 295.101 49.9289C297.861 49.9289 300.473 49.1175 302.912 47.5438C304.071 46.757 305.056 45.6259 305.82 44.1998Z" fill="#193974"/>
<path d="M142.448 20.472C144.616 15.5543 146.587 13.538 150.505 13.0217C154.596 12.4807 156.69 14.1282 161.298 18.6279C165.906 23.1275 170.588 28.242 173.225 28.3895C175.861 28.537 184.363 19.4393 188.453 17.4476C192.667 15.3822 195.648 14.915 199.394 17.6443C203.139 20.3982 204.593 28.537 204.79 31.8811C204.988 35.2251 203.139 34.0694 202.376 32.7416C201.513 31.2418 200.7 27.8239 199.961 26.8896C201.168 32.5941 200.429 39.7494 199.714 44.0032C199.468 45.5031 197.866 45.626 197.028 45.5277C197.028 45.5277 194.54 53.3714 192.962 52.5846C191.928 52.0682 193.48 47.3226 193.406 44.7162C193.406 44.7162 192.913 44.5195 192.125 44.2491C192.125 44.2491 190.153 51.6502 188.65 50.765C187.812 50.2487 188.798 46.4866 188.576 43.2163C187.64 42.7983 186.161 42.7246 186.679 40.3887C187.246 37.8315 189.587 29.9386 189.463 24.6029L178.005 32.422C178.005 32.422 176.379 37.4626 176.034 38.7412C176.034 38.7412 177.586 45.0605 176.231 45.6014C174.851 46.167 173.126 41.0034 173.126 41.0034C173.126 41.0034 171.746 46.2653 170.366 45.6998C168.962 45.1097 170.021 38.4954 170.021 38.4954C170.021 38.4954 169.479 36.5529 169.06 33.3809C169.06 33.3809 159.105 25.2667 158.341 25.2422C157.577 25.2176 157.479 33.4055 157.577 38.0282C157.701 42.6262 158.908 50.5191 157.43 50.8388C155.976 51.1584 153.462 43.9294 152.896 41.1509C152.896 41.1509 153.093 52.2895 151.245 52.6091C148.805 53.0517 144.591 29.1517 145.503 24.652C145.503 24.652 143.556 33.3318 141.24 32.8154C139.885 32.5449 141.191 23.3488 142.448 20.472Z" fill="#193974"/>
<path d="M6.578 49.414C5.53533 49.414 4.738 49.1227 4.186 48.54C3.634 47.9573 3.358 47.1447 3.358 46.102V19.468C3.358 18.4253 3.64933 17.6127 4.232 17.03C4.84533 16.4473 5.67333 16.156 6.716 16.156C7.636 16.156 8.35667 16.34 8.878 16.708C9.43 17.0453 9.936 17.6433 10.396 18.502L21.022 37.914H19.458L30.084 18.502C30.544 17.6433 31.0347 17.0453 31.556 16.708C32.108 16.34 32.8287 16.156 33.718 16.156C34.7607 16.156 35.558 16.4473 36.11 17.03C36.6927 17.6127 36.984 18.4253 36.984 19.468V46.102C36.984 47.1447 36.708 47.9573 36.156 48.54C35.604 49.1227 34.8067 49.414 33.764 49.414C32.7213 49.414 31.9087 49.1227 31.326 48.54C30.774 47.9573 30.498 47.1447 30.498 46.102V27.472H31.51L22.954 42.79C22.586 43.3727 22.1873 43.8173 21.758 44.124C21.3593 44.4 20.8227 44.538 20.148 44.538C19.4733 44.538 18.9213 44.3847 18.492 44.078C18.0627 43.7713 17.6793 43.342 17.342 42.79L8.694 27.426H9.798V46.102C9.798 47.1447 9.522 47.9573 8.97 48.54C8.44867 49.1227 7.65133 49.414 6.578 49.414ZM54.8309 49.414C53.6656 49.414 52.7763 49.092 52.1629 48.448C51.5496 47.804 51.2429 46.884 51.2429 45.688V32.348L52.7149 36.442L41.8589 21.032C41.4296 20.388 41.2456 19.698 41.3069 18.962C41.3683 18.1953 41.6749 17.536 42.2269 16.984C42.7789 16.432 43.5609 16.156 44.5729 16.156C45.3089 16.156 45.9683 16.34 46.5509 16.708C47.1643 17.076 47.7469 17.6587 48.2989 18.456L55.6589 29.082H54.1869L61.5469 18.456C62.1296 17.628 62.6969 17.0453 63.2489 16.708C63.8316 16.34 64.5063 16.156 65.2729 16.156C66.2543 16.156 67.0209 16.4167 67.5729 16.938C68.1249 17.4287 68.4163 18.0573 68.4469 18.824C68.4776 19.56 68.2169 20.3267 67.6649 21.124L56.9469 36.442L58.3729 32.348V45.688C58.3729 48.172 57.1923 49.414 54.8309 49.414Z" fill="#193974"/>
</svg>
